# xmcd CD database file
#
# Track frame offsets:
#	150
#	19919
#	41939
#	63947
#	87039
#	105854
#	127235
#	142400
#	164986
#
# Disc length: 2388 seconds
#
# Revision: 0
# Processed by: cddbd v1.5.2PL0 Copyright (c) Steve Scherf et al.
# Submitted via: CDex 1.51
#
DISCID=85095209
DTITLE=Casiopea - Super Flight
DYEAR=1979
DGENRE=Jazz
TTITLE0=Take Me
TTITLE1=Flying
TTITLE2=Dune
TTITLE3=Asayake
TTITLE4=I Love New York
TTITLE5=Sailing Alone
TTITLE6=Orion
TTITLE7=Magic Ray
TTITLE8=Mighty Mouse
EXTD=YEAR: 1979
EXTT0=
EXTT1=
EXTT2=
EXTT3=
EXTT4=
EXTT5=
EXTT6=
EXTT7=
EXTT8=
PLAYORDER=
